<?xml version="1.0" standalone="no"?>
<!DOCTYPE svg PUBLIC "-//W3C//DTD SVG 1.0//EN" "http://www.w3.org/TR/2001/REC-SVG-20010904/DTD/svg10.dtd">
<svg xmlns="http://www.w3.org/2000/svg" xmlns:xlink="http://www.w3.org/1999/xlink" id="body_1059140827_3522" width="3174.8049" height="4490.081">

<g transform="matrix(7.519752 0 0 -7.519752 8.2545379 3361.7237)" >
    <g>
            <path d="M181.42218 178.42002L241.92218 178.42002" stroke="#000000" stroke-width="0.1127837" stroke-linecap="round" fill="none" />
            <path d="M241.92218 177.42002L241.92218 178.42002" stroke="#000000" stroke-width="0.1127837" stroke-linecap="round" fill="none" />
            <path d="M241.92218 177.42002L181.42218 177.42002" stroke="#000000" stroke-width="0.1127837" stroke-linecap="round" fill="none" />
            <path d="M181.42218 178.42002L181.42218 177.42002" stroke="#000000" stroke-width="0.1127837" stroke-linecap="round" fill="none" />
            <path d="M181.42218 177.42002L181.42218 173.42002" stroke="#000000" stroke-width="0.1127837" stroke-linecap="round" fill="none" />
            <path d="M241.92218 177.42002L241.92218 173.42002" stroke="#000000" stroke-width="0.1127837" stroke-linecap="round" fill="none" />
            <path d="M181.42218 173.42002L241.92218 173.42002" stroke="#000000" stroke-width="0.1127837" stroke-linecap="round" fill="none" />
            <path d="M251.92218 177.42002L241.92218 177.42002" stroke="#000000" stroke-width="0.1127837" stroke-linecap="round" fill="none" />
            <path d="M251.92218 177.42002L251.92218 173.42002" stroke="#000000" stroke-width="0.1127837" stroke-linecap="round" fill="none" />
            <path d="M241.92218 173.42002L251.92218 173.42002" stroke="#000000" stroke-width="0.1127837" stroke-linecap="round" fill="none" />
            <path d="M241.92218 178.42002L250.92218 178.42002" stroke="#000000" stroke-width="0.1127837" stroke-linecap="round" fill="none" />
            <path d="M251.92218 177.42002L250.92218 178.42002" stroke="#000000" stroke-width="0.1127837" stroke-linecap="round" fill="none" />
            <path d="M171.42218 177.42002L171.42218 173.42002" stroke="#000000" stroke-width="0.1127837" stroke-linecap="round" fill="none" />
            <path d="M181.42218 177.42002L171.42218 177.42002" stroke="#000000" stroke-width="0.1127837" stroke-linecap="round" fill="none" />
            <path d="M171.42218 173.42002L181.42218 173.42002" stroke="#000000" stroke-width="0.1127837" stroke-linecap="round" fill="none" />
            <path d="M172.42218 178.42002L181.42218 178.42002" stroke="#000000" stroke-width="0.1127837" stroke-linecap="round" fill="none" />
            <path d="M172.42218 178.42002L171.42218 177.42002" stroke="#000000" stroke-width="0.1127837" stroke-linecap="round" fill="none" />
            <path d="M181.42218 173.42002L181.42218 135.42002" stroke="#000000" stroke-width="0.1127837" stroke-linecap="round" fill="none" />
            <path d="M241.92218 135.42002L241.92218 173.42002" stroke="#000000" stroke-width="0.1127837" stroke-linecap="round" fill="none" />
            <path d="M241.92218 135.42002L181.42218 135.42002" stroke="#000000" stroke-width="0.1127837" stroke-linecap="round" fill="none" />
            <path d="M251.92218 173.42002L251.92218 135.42002" stroke="#000000" stroke-width="0.1127837" stroke-linecap="round" fill="none" />
            <path d="M251.92218 135.42002L241.92218 135.42002" stroke="#000000" stroke-width="0.1127837" stroke-linecap="round" fill="none" />
            <path d="M171.42218 135.42002L171.42218 173.42002" stroke="#000000" stroke-width="0.1127837" stroke-linecap="round" fill="none" />
            <path d="M181.42218 135.42002L171.42218 135.42002" stroke="#000000" stroke-width="0.1127837" stroke-linecap="round" fill="none" />
    </g>
</g>
</svg>